{"asset":{"version":"2.0","generator":"Blockbench 4.12.5 glTF exporter"},"scenes":[{"nodes":[20],"name":"blockbench_export"}],"scene":0,"nodes":[{"translation":[0,0,0.03125],"name":"f8249cd6-ea6a-daab-4f03-dc504ac5708b"},{"translation":[0,0,0.03125],"name":"011f7120-a207-ee51-940f-fd2148fe5d4d"},{"name":"4dad9859-b0fc-5fe8-cdfc-705d04d7bf09"},{"name":"ad3f5506-76dc-4f7a-040c-a77b610132a9"},{"name":"3096afa0-5e98-fe14-d635-6ac93650e241"},{"name":"09ecff18-8a3d-24bb-72eb-389637e26a21"},{"name":"84eb1670-f8b1-4d9a-f567-e51465f43cc5"},{"name":"c17d0b57-96af-b939-e2bf-fcb4d5db7c81"},{"name":"efd8d4c2-128b-178d-ed04-397635c81a25"},{"name":"68204e7e-3fa8-0831-19fc-f116bc8fce8c"},{"name":"0002b928-433c-4998-64a4-a04ed42ce840"},{"name":"45292f95-a112-5f5d-bfdc-5a8d02ecfb72"},{"name":"03970cef-c323-6200-73fa-85259f924bb8"},{"name":"e6fadffa-84c8-c867-9a61-751eb2b5d581"},{"name":"3cce9183-170a-9c34-0d22-b1d6c05fd407"},{"name":"d94364ef-1dc4-3d63-b716-f3ed94f80c44"},{"name":"a4fe72ef-c90b-e4e6-bc84-a1d8b64f5026","children":[0,1,2,3,4,5,6,7,8,9,10,11,12,13,14,15]},{"translation":[-0.1875,0.3125,-0.21875],"name":"nicehatbro-geo","mesh":0},{"translation":[0,0.28125,0],"name":"head-anchor","mesh":1},{"translation":[0,-0.25,0.03125],"name":"head-cosmetic","children":[17,18]},{"children":[16,19]}],"bufferViews":[{"buffer":0,"byteOffset":0,"byteLength":1440,"target":34962,"byteStride":12},{"buffer":0,"byteOffset":1440,"byteLength":1440,"target":34962,"byteStride":12},{"buffer":0,"byteOffset":2880,"byteLength":960,"target":34962,"byteStride":8},{"buffer":0,"byteOffset":3840,"byteLength":360,"target":34963},{"buffer":0,"byteOffset":4200,"byteLength":288,"target":34962,"byteStride":12},{"buffer":0,"byteOffset":4488,"byteLength":288,"target":34962,"byteStride":12},{"buffer":0,"byteOffset":4776,"byteLength":192,"target":34962,"byteStride":8},{"buffer":0,"byteOffset":4968,"byteLength":72,"target":34963}],"buffers":[{"byteLength":5040,"uri":"data:application/octet-stream;base64,"}],"accessors":[{"bufferView":0,"componentType":5126,"count":120,"max":[0.46875,0.0625,0.46875],"min":[-0.09375,-0.3125,-0.09375],"type":"VEC3"},{"bufferView":1,"componentType":5126,"count":120,"max":[1,1,1],"min":[-1,-1,-1],"type":"VEC3"},{"bufferView":2,"componentType":5126,"count":120,"max":[1,1],"min":[0,0],"type":"VEC2"},{"bufferView":3,"componentType":5123,"count":180,"max":[119],"min":[0],"type":"SCALAR"},{"bufferView":4,"componentType":5126,"count":24,"max":[0.03125,0.0625,0.03125],"min":[-0.03125,0,-0.03125],"type":"VEC3"},{"bufferView":5,"componentType":5126,"count":24,"max":[1,1,1],"min":[-1,-1,-1],"type":"VEC3"},{"bufferView":6,"componentType":5126,"count":24,"max":[1,1],"min":[0.96875,0.96875],"type":"VEC2"},{"bufferView":7,"componentType":5123,"count":36,"max":[23],"min":[0],"type":"SCALAR"}],"materials":[{"pbrMetallicRoughness":{"metallicFactor":0,"roughnessFactor":1,"baseColorTexture":{"index":0}},"alphaMode":"MASK","alphaCutoff":0.05,"doubleSided":true},{"pbrMetallicRoughness":{"metallicFactor":0,"roughnessFactor":1},"alphaMode":"MASK","alphaCutoff":0.05,"doubleSided":true}],"textures":[{"sampler":0,"source":0,"name":"red-texture.png"}],"samplers":[{"magFilter":9728,"minFilter":9728,"wrapS":33071,"wrapT":33071}],"images":[{"mimeType":"image/png","uri":"data:image/png;base64,"}],"meshes":[{"primitives":[{"mode":4,"attributes":{"POSITION":0,"NORMAL":1,"TEXCOORD_0":2},"indices":3,"material":0}]},{"primitives":[{"mode":4,"attributes":{"POSITION":4,"NORMAL":5,"TEXCOORD_0":6},"indices":7,"material":1}]}]}