{"asset":{"version":"2.0","generator":"Blockbench 4.12.5 glTF exporter"},"scenes":[{"nodes":[2],"name":"blockbench_export"}],"scene":0,"nodes":[{"name":"obj1","mesh":0},{"rotation":[0,-1,0,6.123233995736766e-17],"name":"frame","children":[0]},{"children":[1]}],"bufferViews":[{"buffer":0,"byteOffset":0,"byteLength":5952,"target":34962,"byteStride":12},{"buffer":0,"byteOffset":5952,"byteLength":5952,"target":34962,"byteStride":12},{"buffer":0,"byteOffset":11904,"byteLength":3968,"target":34962,"byteStride":8},{"buffer":0,"byteOffset":15872,"byteLength":792,"target":34963},{"buffer":0,"byteOffset":16664,"byteLength":72,"target":34963},{"buffer":0,"byteOffset":16736,"byteLength":96,"target":34963},{"buffer":0,"byteOffset":16832,"byteLength":72,"target":34963}],"buffers":[{"byteLength":16904,"uri":"data:application/octet-stream;base64,"}],"accessors":[{"bufferView":0,"componentType":5126,"count":496,"max":[3,4.199999809265137,3.8413987159729004],"min":[-3,0,-0.10000000149011612],"type":"VEC3"},{"bufferView":1,"componentType":5126,"count":496,"max":[1,1,1],"min":[-1,-1,-1],"type":"VEC3"},{"bufferView":2,"componentType":5126,"count":496,"max":[0.78125,0.9609375],"min":[0,0],"type":"VEC2"},{"bufferView":3,"componentType":5123,"count":396,"max":[395],"min":[0],"type":"SCALAR"},{"bufferView":4,"componentType":5123,"count":36,"max":[419],"min":[396],"type":"SCALAR"},{"bufferView":5,"componentType":5123,"count":48,"max":[459],"min":[420],"type":"SCALAR"},{"bufferView":6,"componentType":5123,"count":36,"max":[495],"min":[460],"type":"SCALAR"}],"materials":[{"pbrMetallicRoughness":{"metallicFactor":0,"roughnessFactor":1,"baseColorTexture":{"index":0}},"alphaMode":"MASK","alphaCutoff":0.05,"doubleSided":true},{"pbrMetallicRoughness":{"metallicFactor":0,"roughnessFactor":1,"baseColorTexture":{"index":1}},"alphaMode":"MASK","alphaCutoff":0.05,"doubleSided":true},{"pbrMetallicRoughness":{"metallicFactor":0,"roughnessFactor":1,"baseColorTexture":{"index":2}},"alphaMode":"MASK","alphaCutoff":0.05,"doubleSided":true},{"pbrMetallicRoughness":{"metallicFactor":0,"roughnessFactor":1,"baseColorTexture":{"index":3}},"alphaMode":"MASK","alphaCutoff":0.05,"doubleSided":true}],"textures":[{"sampler":0,"source":0,"name":"texture"},{"sampler":1,"source":1,"name":"texture"},{"sampler":2,"source":2,"name":"texture"},{"sampler":3,"source":3,"name":"texture"}],"samplers":[{"magFilter":9728,"minFilter":9728,"wrapS":33071,"wrapT":33071},{"magFilter":9728,"minFilter":9728,"wrapS":33071,"wrapT":33071},{"magFilter":9728,"minFilter":9728,"wrapS":33071,"wrapT":33071},{"magFilter":9728,"minFilter":9728,"wrapS":33071,"wrapT":33071}],"images":[{"mimeType":"image/png","uri":"data:image/png;base64,"},{"mimeType":"image/png","uri":"data:image/png;base64,"},{"mimeType":"image/png","uri":"data:image/png;base64,"},{"mimeType":"image/png","uri":"data:image/png;base64,"}],"meshes":[{"primitives":[{"mode":4,"attributes":{"POSITION":0,"NORMAL":1,"TEXCOORD_0":2},"indices":3,"material":0},{"mode":4,"attributes":{"POSITION":0,"NORMAL":1,"TEXCOORD_0":2},"indices":4,"material":1},{"mode":4,"attributes":{"POSITION":0,"NORMAL":1,"TEXCOORD_0":2},"indices":5,"material":2},{"mode":4,"attributes":{"POSITION":0,"NORMAL":1,"TEXCOORD_0":2},"indices":6,"material":3}]}]}