{"asset":{"version":"2.0","generator":"Blockbench 4.12.4 glTF exporter"},"scenes":[{"nodes":[16],"name":"blockbench_export"}],"scene":0,"nodes":[{"name":"obj13","mesh":0},{"rotation":[0,0.7071067811865475,0,0.7071067811865476],"translation":[-2.875,1.75,1.125],"name":"cuboid","mesh":1},{"rotation":[0,0.7071067811865475,0,0.7071067811865476],"translation":[2.9375,1.75,1.125],"name":"cuboid","mesh":2},{"translation":[0,3.8125,0.9375],"name":"cuboid","mesh":3},{"name":"obj1","mesh":4},{"name":"obj2","mesh":5},{"name":"obj3","mesh":6},{"name":"obj4","mesh":7},{"name":"obj5","mesh":8},{"name":"obj6","mesh":9},{"name":"obj7","mesh":10},{"name":"obj8","mesh":11},{"name":"obj9","mesh":12},{"name":"obj10","mesh":13},{"name":"obj11","mesh":14},{"name":"frame","children":[4,5,6,7,8,9,10,11,12,13,14]},{"children":[0,1,2,3,15]}],"bufferViews":[{"buffer":0,"byteOffset":0,"byteLength":432,"target":34962,"byteStride":12},{"buffer":0,"byteOffset":432,"byteLength":432,"target":34962,"byteStride":12},{"buffer":0,"byteOffset":864,"byteLength":288,"target":34962,"byteStride":8},{"buffer":0,"byteOffset":1152,"byteLength":72,"target":34963},{"buffer":0,"byteOffset":1224,"byteLength":240,"target":34962,"byteStride":12},{"buffer":0,"byteOffset":1464,"byteLength":240,"target":34962,"byteStride":12},{"buffer":0,"byteOffset":1704,"byteLength":160,"target":34962,"byteStride":8},{"buffer":0,"byteOffset":1864,"byteLength":48,"target":34963},{"buffer":0,"byteOffset":1912,"byteLength":240,"target":34962,"byteStride":12},{"buffer":0,"byteOffset":2152,"byteLength":240,"target":34962,"byteStride":12},{"buffer":0,"byteOffset":2392,"byteLength":160,"target":34962,"byteStride":8},{"buffer":0,"byteOffset":2552,"byteLength":48,"target":34963},{"buffer":0,"byteOffset":2600,"byteLength":288,"target":34962,"byteStride":12},{"buffer":0,"byteOffset":2888,"byteLength":288,"target":34962,"byteStride":12},{"buffer":0,"byteOffset":3176,"byteLength":192,"target":34962,"byteStride":8},{"buffer":0,"byteOffset":3368,"byteLength":72,"target":34963},{"buffer":0,"byteOffset":3440,"byteLength":432,"target":34962,"byteStride":12},{"buffer":0,"byteOffset":3872,"byteLength":432,"target":34962,"byteStride":12},{"buffer":0,"byteOffset":4304,"byteLength":288,"target":34962,"byteStride":8},{"buffer":0,"byteOffset":4592,"byteLength":72,"target":34963},{"buffer":0,"byteOffset":4664,"byteLength":432,"target":34962,"byteStride":12},{"buffer":0,"byteOffset":5096,"byteLength":432,"target":34962,"byteStride":12},{"buffer":0,"byteOffset":5528,"byteLength":288,"target":34962,"byteStride":8},{"buffer":0,"byteOffset":5816,"byteLength":72,"target":34963},{"buffer":0,"byteOffset":5888,"byteLength":432,"target":34962,"byteStride":12},{"buffer":0,"byteOffset":6320,"byteLength":432,"target":34962,"byteStride":12},{"buffer":0,"byteOffset":6752,"byteLength":288,"target":34962,"byteStride":8},{"buffer":0,"byteOffset":7040,"byteLength":72,"target":34963},{"buffer":0,"byteOffset":7112,"byteLength":432,"target":34962,"byteStride":12},{"buffer":0,"byteOffset":7544,"byteLength":432,"target":34962,"byteStride":12},{"buffer":0,"byteOffset":7976,"byteLength":288,"target":34962,"byteStride":8},{"buffer":0,"byteOffset":8264,"byteLength":72,"target":34963},{"buffer":0,"byteOffset":8336,"byteLength":432,"target":34962,"byteStride":12},{"buffer":0,"byteOffset":8768,"byteLength":432,"target":34962,"byteStride":12},{"buffer":0,"byteOffset":9200,"byteLength":288,"target":34962,"byteStride":8},{"buffer":0,"byteOffset":9488,"byteLength":72,"target":34963},{"buffer":0,"byteOffset":9560,"byteLength":432,"target":34962,"byteStride":12},{"buffer":0,"byteOffset":9992,"byteLength":432,"target":34962,"byteStride":12},{"buffer":0,"byteOffset":10424,"byteLength":288,"target":34962,"byteStride":8},{"buffer":0,"byteOffset":10712,"byteLength":72,"target":34963},{"buffer":0,"byteOffset":10784,"byteLength":432,"target":34962,"byteStride":12},{"buffer":0,"byteOffset":11216,"byteLength":432,"target":34962,"byteStride":12},{"buffer":0,"byteOffset":11648,"byteLength":288,"target":34962,"byteStride":8},{"buffer":0,"byteOffset":11936,"byteLength":72,"target":34963},{"buffer":0,"byteOffset":12008,"byteLength":432,"target":34962,"byteStride":12},{"buffer":0,"byteOffset":12440,"byteLength":432,"target":34962,"byteStride":12},{"buffer":0,"byteOffset":12872,"byteLength":288,"target":34962,"byteStride":8},{"buffer":0,"byteOffset":13160,"byteLength":72,"target":34963},{"buffer":0,"byteOffset":13232,"byteLength":432,"target":34962,"byteStride":12},{"buffer":0,"byteOffset":13664,"byteLength":432,"target":34962,"byteStride":12},{"buffer":0,"byteOffset":14096,"byteLength":288,"target":34962,"byteStride":8},{"buffer":0,"byteOffset":14384,"byteLength":72,"target":34963},{"buffer":0,"byteOffset":14456,"byteLength":432,"target":34962,"byteStride":12},{"buffer":0,"byteOffset":14888,"byteLength":432,"target":34962,"byteStride":12},{"buffer":0,"byteOffset":15320,"byteLength":288,"target":34962,"byteStride":8},{"buffer":0,"byteOffset":15608,"byteLength":72,"target":34963},{"buffer":0,"byteOffset":15680,"byteLength":432,"target":34962,"byteStride":12},{"buffer":0,"byteOffset":16112,"byteLength":432,"target":34962,"byteStride":12},{"buffer":0,"byteOffset":16544,"byteLength":288,"target":34962,"byteStride":8},{"buffer":0,"byteOffset":16832,"byteLength":72,"target":34963}],"buffers":[{"byteLength":16904,"uri":"data:application/octet-stream;base64,"}],"accessors":[{"bufferView":0,"componentType":5126,"count":36,"max":[2.799999952316284,4.1122612953186035,3.772671937942505],"min":[-2.799999952316284,0.0877387523651123,1.9773281812667847],"type":"VEC3"},{"bufferView":1,"componentType":5126,"count":36,"max":[1,0.9163623452186584,0.9163627028465271],"min":[-1,-0.9163623452186584,-0.9163627028465271],"type":"VEC3"},{"bufferView":2,"componentType":5126,"count":36,"max":[0.706250011920929,0.591376543045044],"min":[0.0007812500116415322,0],"type":"VEC2"},{"bufferView":3,"componentType":5123,"count":36,"max":[35],"min":[0],"type":"SCALAR"},{"bufferView":4,"componentType":5126,"count":20,"max":[1.0625,2.25,0],"min":[-2.5,-1.5625,0],"type":"VEC3"},{"bufferView":5,"componentType":5126,"count":20,"max":[0,0,1],"min":[0,0,-1],"type":"VEC3"},{"bufferView":6,"componentType":5126,"count":20,"max":[0.78125,0.9609375],"min":[0,0],"type":"VEC2"},{"bufferView":7,"componentType":5123,"count":24,"max":[19],"min":[0],"type":"SCALAR"},{"bufferView":8,"componentType":5126,"count":20,"max":[1.0625,2.25,0],"min":[-2.5,-1.5625,0],"type":"VEC3"},{"bufferView":9,"componentType":5126,"count":20,"max":[0,0,1],"min":[0,0,-1],"type":"VEC3"},{"bufferView":10,"componentType":5126,"count":20,"max":[0.78125,0.9609375],"min":[0,0],"type":"VEC2"},{"bufferView":11,"componentType":5123,"count":24,"max":[19],"min":[0],"type":"SCALAR"},{"bufferView":12,"componentType":5126,"count":24,"max":[2.84375,0.25,0.875],"min":[-2.84375,0.25,-0.875],"type":"VEC3"},{"bufferView":13,"componentType":5126,"count":24,"max":[1,1,0],"min":[0,-1,0],"type":"VEC3"},{"bufferView":14,"componentType":5126,"count":24,"max":[0.7265625,0.6484375],"min":[0,0],"type":"VEC2"},{"bufferView":15,"componentType":5123,"count":36,"max":[23],"min":[0],"type":"SCALAR"},{"bufferView":16,"componentType":5126,"count":36,"max":[-2.799999952316284,4,0.10000000149011612],"min":[-3,0,-0.10000000149011612],"type":"VEC3"},{"bufferView":17,"componentType":5126,"count":36,"max":[1,1,1],"min":[-1,-1,-1],"type":"VEC3"},{"bufferView":18,"componentType":5126,"count":36,"max":[0.109375,0.12413251399993896],"min":[0.015625,0.0008674860000610352],"type":"VEC2"},{"bufferView":19,"componentType":5123,"count":36,"max":[35],"min":[0],"type":"SCALAR"},{"bufferView":20,"componentType":5126,"count":36,"max":[3,4,0.10000000149011612],"min":[2.799999952316284,0,-0.10000000149011612],"type":"VEC3"},{"bufferView":21,"componentType":5126,"count":36,"max":[1,1,1],"min":[-1,-1,-1],"type":"VEC3"},{"bufferView":22,"componentType":5126,"count":36,"max":[0.109375,0.12413251399993896],"min":[0.015625,0.0008674860000610352],"type":"VEC2"},{"bufferView":23,"componentType":5123,"count":36,"max":[35],"min":[0],"type":"SCALAR"},{"bufferView":24,"componentType":5126,"count":36,"max":[3,4.199999809265137,0.10000000149011612],"min":[-3,4,-0.10000000149011612],"type":"VEC3"},{"bufferView":25,"componentType":5126,"count":36,"max":[1,1,1],"min":[-1,-1,-1],"type":"VEC3"},{"bufferView":26,"componentType":5126,"count":36,"max":[0.12239625304937363,0.12239623069763184],"min":[0.002603749977424741,0.002603769302368164],"type":"VEC2"},{"bufferView":27,"componentType":5123,"count":36,"max":[35],"min":[0],"type":"SCALAR"},{"bufferView":28,"componentType":5126,"count":36,"max":[-2.799999952316284,0.20000000298023224,3.75],"min":[-3,0,0],"type":"VEC3"},{"bufferView":29,"componentType":5126,"count":36,"max":[1,1,1],"min":[-1,-1,-1],"type":"VEC3"},{"bufferView":30,"componentType":5126,"count":36,"max":[0.12083374708890915,0.1236412525177002],"min":[0.004166250117123127,0.0013587474822998047],"type":"VEC2"},{"bufferView":31,"componentType":5123,"count":36,"max":[35],"min":[0],"type":"SCALAR"},{"bufferView":32,"componentType":5126,"count":36,"max":[3,0.20000000298023224,3.75],"min":[2.799999952316284,0,0],"type":"VEC3"},{"bufferView":33,"componentType":5126,"count":36,"max":[1,1,1],"min":[-1,-1,-1],"type":"VEC3"},{"bufferView":34,"componentType":5126,"count":36,"max":[0.12083374708890915,0.1236412525177002],"min":[0.004166250117123127,0.0013587474822998047],"type":"VEC2"},{"bufferView":35,"componentType":5123,"count":36,"max":[35],"min":[0],"type":"SCALAR"},{"bufferView":36,"componentType":5126,"count":36,"max":[2.799999952316284,0.20000000298023224,3.75],"min":[-2.799999952316284,0,3.549999952316284],"type":"VEC3"},{"bufferView":37,"componentType":5126,"count":36,"max":[1,1,1],"min":[-1,-1,-1],"type":"VEC3"},{"bufferView":38,"componentType":5126,"count":36,"max":[0.12215875089168549,0.12239623069763184],"min":[0.0028412500396370888,0.002603769302368164],"type":"VEC2"},{"bufferView":39,"componentType":5123,"count":36,"max":[35],"min":[0],"type":"SCALAR"},{"bufferView":40,"componentType":5126,"count":36,"max":[-2.799999952316284,4.199999809265137,2],"min":[-3,4,0],"type":"VEC3"},{"bufferView":41,"componentType":5126,"count":36,"max":[1,1,1],"min":[-1,-1,-1],"type":"VEC3"},{"bufferView":42,"componentType":5126,"count":36,"max":[0.1171875,0.12304747104644775],"min":[0.0078125,0.001952528953552246],"type":"VEC2"},{"bufferView":43,"componentType":5123,"count":36,"max":[35],"min":[0],"type":"SCALAR"},{"bufferView":44,"componentType":5126,"count":36,"max":[3,4.199999809265137,2],"min":[2.799999952316284,4,0],"type":"VEC3"},{"bufferView":45,"componentType":5126,"count":36,"max":[1,1,1],"min":[-1,-1,-1],"type":"VEC3"},{"bufferView":46,"componentType":5126,"count":36,"max":[0.1171875,0.12304747104644775],"min":[0.0078125,0.001952528953552246],"type":"VEC2"},{"bufferView":47,"componentType":5123,"count":36,"max":[35],"min":[0],"type":"SCALAR"},{"bufferView":48,"componentType":5126,"count":36,"max":[2.799999952316284,4.199999809265137,2],"min":[-2.799999952316284,4,1.7999999523162842],"type":"VEC3"},{"bufferView":49,"componentType":5126,"count":36,"max":[1,1,1],"min":[-1,-1,-1],"type":"VEC3"},{"bufferView":50,"componentType":5126,"count":36,"max":[0.12215875089168549,0.12239623069763184],"min":[0.0028412500396370888,0.002603769302368164],"type":"VEC2"},{"bufferView":51,"componentType":5123,"count":36,"max":[35],"min":[0],"type":"SCALAR"},{"bufferView":52,"componentType":5126,"count":36,"max":[-2.799999952316284,4.142287731170654,3.8413987159729004],"min":[-3,0.05771249905228615,1.9086012840270996],"type":"VEC3"},{"bufferView":53,"componentType":5126,"count":36,"max":[1,0.9163623452186584,0.9163627624511719],"min":[-1,-0.9163623452186584,-0.9163627624511719],"type":"VEC3"},{"bufferView":54,"componentType":5126,"count":36,"max":[0.109375,0.12417751550674438],"min":[0.015625,0.0008224844932556152],"type":"VEC2"},{"bufferView":55,"componentType":5123,"count":36,"max":[35],"min":[0],"type":"SCALAR"},{"bufferView":56,"componentType":5126,"count":36,"max":[3,4.142287731170654,3.8413987159729004],"min":[2.799999952316284,0.05771249905228615,1.9086012840270996],"type":"VEC3"},{"bufferView":57,"componentType":5126,"count":36,"max":[1,0.9163623452186584,0.9163627624511719],"min":[-1,-0.9163623452186584,-0.9163627624511719],"type":"VEC3"},{"bufferView":58,"componentType":5126,"count":36,"max":[0.109375,0.12417751550674438],"min":[0.015625,0.0008224844932556152],"type":"VEC2"},{"bufferView":59,"componentType":5123,"count":36,"max":[35],"min":[0],"type":"SCALAR"}],"materials":[{"pbrMetallicRoughness":{"metallicFactor":0,"roughnessFactor":1,"baseColorTexture":{"index":0}},"alphaMode":"MASK","alphaCutoff":0.05,"doubleSided":true},{"pbrMetallicRoughness":{"metallicFactor":0,"roughnessFactor":1,"baseColorTexture":{"index":1}},"alphaMode":"MASK","alphaCutoff":0.05,"doubleSided":true},{"pbrMetallicRoughness":{"metallicFactor":0,"roughnessFactor":1,"baseColorTexture":{"index":2}},"alphaMode":"MASK","alphaCutoff":0.05,"doubleSided":true},{"pbrMetallicRoughness":{"metallicFactor":0,"roughnessFactor":1,"baseColorTexture":{"index":3}},"alphaMode":"MASK","alphaCutoff":0.05,"doubleSided":true}],"textures":[{"sampler":0,"source":0,"name":"texture"},{"sampler":1,"source":1,"name":"texture"},{"sampler":2,"source":2,"name":"texture"},{"sampler":3,"source":3,"name":"texture"}],"samplers":[{"magFilter":9728,"minFilter":9728,"wrapS":33071,"wrapT":33071},{"magFilter":9728,"minFilter":9728,"wrapS":33071,"wrapT":33071},{"magFilter":9728,"minFilter":9728,"wrapS":33071,"wrapT":33071},{"magFilter":9728,"minFilter":9728,"wrapS":33071,"wrapT":33071}],"images":[{"mimeType":"image/png","uri":"data:image/png;base64,"},{"mimeType":"image/png","uri":"data:image/png;base64,"},{"mimeType":"image/png","uri":"data:image/png;base64,"},{"mimeType":"image/png","uri":"data:image/png;base64,"}],"meshes":[{"primitives":[{"mode":4,"attributes":{"POSITION":0,"NORMAL":1,"TEXCOORD_0":2},"indices":3,"material":0}]},{"primitives":[{"mode":4,"attributes":{"POSITION":4,"NORMAL":5,"TEXCOORD_0":6},"indices":7,"material":1}]},{"primitives":[{"mode":4,"attributes":{"POSITION":8,"NORMAL":9,"TEXCOORD_0":10},"indices":11,"material":1}]},{"primitives":[{"mode":4,"attributes":{"POSITION":12,"NORMAL":13,"TEXCOORD_0":14},"indices":15,"material":2}]},{"primitives":[{"mode":4,"attributes":{"POSITION":16,"NORMAL":17,"TEXCOORD_0":18},"indices":19,"material":3}]},{"primitives":[{"mode":4,"attributes":{"POSITION":20,"NORMAL":21,"TEXCOORD_0":22},"indices":23,"material":3}]},{"primitives":[{"mode":4,"attributes":{"POSITION":24,"NORMAL":25,"TEXCOORD_0":26},"indices":27,"material":3}]},{"primitives":[{"mode":4,"attributes":{"POSITION":28,"NORMAL":29,"TEXCOORD_0":30},"indices":31,"material":3}]},{"primitives":[{"mode":4,"attributes":{"POSITION":32,"NORMAL":33,"TEXCOORD_0":34},"indices":35,"material":3}]},{"primitives":[{"mode":4,"attributes":{"POSITION":36,"NORMAL":37,"TEXCOORD_0":38},"indices":39,"material":3}]},{"primitives":[{"mode":4,"attributes":{"POSITION":40,"NORMAL":41,"TEXCOORD_0":42},"indices":43,"material":3}]},{"primitives":[{"mode":4,"attributes":{"POSITION":44,"NORMAL":45,"TEXCOORD_0":46},"indices":47,"material":3}]},{"primitives":[{"mode":4,"attributes":{"POSITION":48,"NORMAL":49,"TEXCOORD_0":50},"indices":51,"material":3}]},{"primitives":[{"mode":4,"attributes":{"POSITION":52,"NORMAL":53,"TEXCOORD_0":54},"indices":55,"material":3}]},{"primitives":[{"mode":4,"attributes":{"POSITION":56,"NORMAL":57,"TEXCOORD_0":58},"indices":59,"material":3}]}]}