<?xml version="1.0" encoding="UTF-8" standalone="no"?>
<!-- Created with Inkscape (http://www.inkscape.org/) -->

<svg
   width="196.23351mm"
   height="176.45702mm"
   viewBox="0 0 196.23351 176.45702"
   version="1.1"
   id="svg1"
   xml:space="preserve"
   xmlns:inkscape="http://www.inkscape.org/namespaces/inkscape"
   xmlns:sodipodi="http://sodipodi.sourceforge.net/DTD/sodipodi-0.dtd"
   xmlns="http://www.w3.org/2000/svg"
   xmlns:svg="http://www.w3.org/2000/svg"><sodipodi:namedview
     id="namedview1"
     pagecolor="#ffffff"
     bordercolor="#000000"
     borderopacity="0.25"
     inkscape:showpageshadow="2"
     inkscape:pageopacity="0.0"
     inkscape:pagecheckerboard="0"
     inkscape:deskcolor="#d1d1d1"
     inkscape:document-units="mm" /><defs
     id="defs1" /><g
     inkscape:label="Layer 1"
     inkscape:groupmode="layer"
     id="layer1"
     transform="translate(-7.010132,-60.27149)"><g
       style="fill:#e6e6e6;fill-opacity:1"
       id="g1"
       transform="matrix(8.8194444,0,0,8.8194444,-1.8093121,42.667033)"><path
         d="M 13,3.7446 C 13,3.27314 12.8728,2.50021 12.1657,2.14424 11.4151,1.76635 10.7163,2.19354 10.3623,2.51158 L 4.94661,7.43717 H 3 c -1.10457,0 -2,0.89543 -2,2 l 1e-5,5.18763 c 0,1.1045 0.89543,2 2,2 h 1.95 l 5.41229,4.8643 c 0.3552,0.319 1.0537,0.744 1.8033,0.3663 C 12.8717,21.4998 13,20.7286 13,20.2561 Z"
         fill="#000000"
         id="path1"
         style="fill:#e6e6e6;fill-opacity:1" /><path
         d="M 17.336,3.79605 17.0952,3.72886 c -0.5319,-0.14844 -1.0835,0.16246 -1.232,0.69443 l -0.1343,0.4816 c -0.1485,0.53196 0.1624,1.08354 0.6944,1.23198 l 0.2408,0.06719 c 2.291,0.6393 4.086,2.94209 4.086,5.79604 0,2.8539 -1.795,5.1567 -4.086,5.796 l -0.2408,0.0671 c -0.532,0.1485 -0.8429,0.7001 -0.6944,1.232 l 0.1343,0.4816 c 0.1485,0.532 0.7001,0.8429 1.232,0.6945 l 0.2408,-0.0672 c 3.4597,-0.9654 5.9141,-4.3223 5.9141,-8.204 0,-3.88178 -2.4544,-7.23864 -5.9141,-8.20405 z"
         fill="#000000"
         id="path2"
         style="fill:#e6e6e6;fill-opacity:1" /><path
         d="M 16.3581,7.80239 16.1185,7.73078 C 15.5894,7.57258 15.0322,7.87329 14.874,8.40243 l -0.1432,0.47905 c -0.1582,0.52914 0.1425,1.08634 0.6716,1.24452 l 0.2396,0.0716 c 0.5332,0.1595 1.108,0.8144 1.108,1.8024 0,0.9881 -0.5748,1.643 -1.108,1.8024 l -0.2396,0.0716 c -0.5291,0.1582 -0.8298,0.7154 -0.6716,1.2445 l 0.1432,0.4791 c 0.1582,0.5291 0.7154,0.8298 1.2445,0.6716 l 0.2396,-0.0716 C 18.1251,15.6693 19.25,13.8987 19.25,12 c 0,-1.8986 -1.1249,-3.66932 -2.8919,-4.19761 z"
         fill="#000000"
         id="path3"
         style="fill:#e6e6e6;fill-opacity:1" /></g></g></svg>
