<?xml version="1.0" encoding="UTF-8" standalone="no"?>
<svg
   width="959.96802pt"
   height="749.44403pt"
   version="1.1"
   viewBox="0 0 959.96802 749.44403"
   id="svg5"
   sodipodi:docname="noun-gold-crown-6861407.svg"
   xmlns:inkscape="http://www.inkscape.org/namespaces/inkscape"
   xmlns:sodipodi="http://sodipodi.sourceforge.net/DTD/sodipodi-0.dtd"
   xmlns:xlink="http://www.w3.org/1999/xlink"
   xmlns="http://www.w3.org/2000/svg"
   xmlns:svg="http://www.w3.org/2000/svg">
  <defs
     id="defs5">
    <linearGradient
       id="linearGradient5"
       inkscape:collect="always">
      <stop
         style="stop-color:#ffcc0a;stop-opacity:1;"
         offset="0.24766356"
         id="stop5" />
      <stop
         style="stop-color:#fde800;stop-opacity:1;"
         offset="0.50186914"
         id="stop7" />
      <stop
         style="stop-color:#f1b100;stop-opacity:1;"
         offset="0.74766356"
         id="stop6" />
    </linearGradient>
    <linearGradient
       inkscape:collect="always"
       xlink:href="#linearGradient5"
       id="linearGradient6"
       x1="119.998"
       y1="600.04999"
       x2="1079.9659"
       y2="600.04999"
       gradientUnits="userSpaceOnUse" />
    <linearGradient
       inkscape:collect="always"
       xlink:href="#linearGradient5"
       id="linearGradient2"
       gradientUnits="userSpaceOnUse"
       x1="119.998"
       y1="600.04999"
       x2="1079.9659"
       y2="600.04999" />
    <linearGradient
       inkscape:collect="always"
       xlink:href="#linearGradient5"
       id="linearGradient3"
       gradientUnits="userSpaceOnUse"
       x1="119.998"
       y1="600.04999"
       x2="1079.9659"
       y2="600.04999" />
    <linearGradient
       inkscape:collect="always"
       xlink:href="#linearGradient5"
       id="linearGradient4"
       gradientUnits="userSpaceOnUse"
       x1="119.998"
       y1="600.04999"
       x2="1079.9659"
       y2="600.04999" />
    <linearGradient
       inkscape:collect="always"
       xlink:href="#linearGradient5"
       id="linearGradient7"
       gradientUnits="userSpaceOnUse"
       x1="119.998"
       y1="600.04999"
       x2="1079.9659"
       y2="600.04999" />
    <linearGradient
       inkscape:collect="always"
       xlink:href="#linearGradient5"
       id="linearGradient8"
       gradientUnits="userSpaceOnUse"
       x1="119.998"
       y1="600.04999"
       x2="1079.9659"
       y2="600.04999" />
  </defs>
  <sodipodi:namedview
     id="namedview5"
     pagecolor="#ffffff"
     bordercolor="#000000"
     borderopacity="0.25"
     inkscape:showpageshadow="2"
     inkscape:pageopacity="0.0"
     inkscape:pagecheckerboard="0"
     inkscape:deskcolor="#d1d1d1"
     inkscape:document-units="pt"
     showgrid="false" />
  <g
     id="g5"
     style="fill:url(#linearGradient6)"
     transform="translate(-119.998,-225.328)">
    <path
       d="m 600,389.63 -164.39,278.76 -234,-185.02 66.469,409.31 h 663.84 l 66.469,-409.31 -234,185.02 z"
       id="path1"
       style="fill:url(#linearGradient2)" />
    <path
       d="m 600,326.86 c 27.938,0 50.766,-22.781 50.766,-50.766 0,-27.938 -22.781,-50.766 -50.766,-50.766 -27.938,0 -50.766,22.781 -50.766,50.766 0,27.985 22.828,50.766 50.766,50.766 z"
       id="path2"
       style="fill:url(#linearGradient3)" />
    <path
       d="m 221.53,373.69 c 0,-27.938 -22.781,-50.766 -50.766,-50.766 -27.985,0 -50.766,22.781 -50.766,50.766 0,27.938 22.781,50.766 50.766,50.766 27.938,0 50.766,-22.828 50.766,-50.766 z"
       id="path3"
       style="fill:url(#linearGradient4)" />
    <path
       d="m 1029.2,322.92 c -27.938,0 -50.766,22.781 -50.766,50.766 0,27.938 22.781,50.766 50.766,50.766 27.938,0 50.766,-22.781 50.766,-50.766 0,-27.985 -22.781,-50.766 -50.766,-50.766 z"
       id="path4"
       style="fill:url(#linearGradient7)" />
    <path
       d="M 912.24,951.24 H 287.77 c -6.4688,0 -11.766,5.2969 -11.766,11.766 0,6.4691 5.2969,11.766 11.766,11.766 h 624.37 c 6.4688,0 11.766,-5.2969 11.766,-11.766 -0.0469,-6.4688 -5.2031,-11.766 -11.672,-11.766 z"
       id="path5"
       style="fill:url(#linearGradient8)" />
  </g>
</svg>
